<?xml version="1.0" encoding="UTF-8"?><svg xmlns="http://www.w3.org/2000/svg" xmlns:xlink="http://www.w3.org/1999/xlink" stroke-dasharray="none" shape-rendering="auto" font-family="'Dialog'" width="720" text-rendering="auto" fill-opacity="1" contentScriptType="text/ecmascript" color-interpolation="auto" color-rendering="auto" preserveAspectRatio="xMidYMid meet" font-size="12" viewBox="0 0 720 320" fill="black" stroke="black" image-rendering="auto" stroke-miterlimit="10" zoomAndPan="magnify" version="1.0" stroke-linecap="square" stroke-linejoin="miter" contentStyleType="text/css" font-style="normal" height="320" stroke-width="1" stroke-dashoffset="0" font-weight="normal" stroke-opacity="1">
<!--Generated by the Batik Graphics2D SVG Generator-->
<defs id="genericDefs"/>
<g>
<defs id="defs1">
<linearGradient x1="10" x2="10" y1="10" gradientUnits="userSpaceOnUse" y2="310" xlink:type="simple" xlink:actuate="onLoad" id="linearGradient1" xlink:show="other" spreadMethod="pad">
<stop stop-opacity="1" stop-color="white" offset="0%"/>
<stop stop-opacity="1" stop-color="rgb(195,209,213)" offset="100%"/>
</linearGradient>
<linearGradient x1="11" x2="11" y1="30" gradientUnits="userSpaceOnUse" y2="310" xlink:type="simple" xlink:actuate="onLoad" id="linearGradient2" xlink:show="other" spreadMethod="pad">
<stop stop-opacity="1" stop-color="white" offset="0%"/>
<stop stop-opacity="1" stop-color="rgb(195,209,213)" offset="100%"/>
</linearGradient>
<clipPath clipPathUnits="userSpaceOnUse" id="clipPath1">
<path d="M20 10 C17.3477 10 14.8047 11.0547 12.9297 12.9297 C11.0547 14.8047 10 17.3477 10 20 L10 299 C10 301.6523 11.0547 304.1953 12.9297 306.0703 C14.8047 307.9453 17.3477 309 20 309 L699 309 C701.6523 309 704.1953 307.9453 706.0703 306.0703 C707.9453 304.1953 709 301.6523 709 299 L709 20 C709 17.3477 707.9453 14.8047 706.0703 12.9297 C704.1953 11.0547 701.6523 10 699 10 Z"/>
</clipPath>
<clipPath clipPathUnits="userSpaceOnUse" id="clipPath2">
<path d="M315 12 L407 12 L407 29 L315 29 L315 12 Z"/>
</clipPath>
<clipPath clipPathUnits="userSpaceOnUse" id="clipPath3">
<path d="M10 29 L711 29 L711 311 L10 311 L10 29 Z"/>
</clipPath>
<clipPath clipPathUnits="userSpaceOnUse" id="clipPath4">
<path d="M10 28 L711 28 L711 311 L10 311 L10 28 Z"/>
</clipPath>
<clipPath clipPathUnits="userSpaceOnUse" id="clipPath5">
<path d="M9 9 L711 9 L711 311 L9 311 L9 9 Z"/>
</clipPath>
</defs>
<g fill="url(#linearGradient1)" font-family="'Noto Sans'" stroke-linejoin="round" stroke="url(#linearGradient1)" stroke-width="0" stroke-miterlimit="0">
<rect x="10" y="10" clip-path="url(#clipPath1)" width="700" height="300" stroke="none"/>
<text x="316" y="25" clip-path="url(#clipPath2)" fill="black" font-family="'Dialog'" stroke="none" xml:space="preserve">StateMachine4</text>
<rect x="11" y="30" clip-path="url(#clipPath3)" fill="url(#linearGradient2)" width="700" height="280" stroke="none"/>
</g>
<g stroke-width="1.1" font-family="'Noto Sans'" stroke-linecap="butt">
<line clip-path="url(#clipPath4)" fill="none" x1="11" x2="711" y1="29" y2="29"/>
<rect x="10" y="10" clip-path="url(#clipPath5)" fill="none" width="699" rx="10" ry="10" height="299"/>
</g>
</g>
<rect x="10" y="10" fill-opacity="0" width="700" id="StateMachine4" height="300" stroke-opacity="0"/>
<rect x="11" y="30" fill-opacity="0" width="700" id="Region1" height="280" stroke-opacity="0"/>
</svg>
